<svg id="visual" viewBox="0 0 1920 800" width="1920" height="800" xmlns="http://www.w3.org/2000/svg" xmlns:xlink="http://www.w3.org/1999/xlink" version="1.1"><g stroke-width="1" stroke-linejoin="bevel"><path d="M985 491L1094 475L1072 373Z" fill="#448de8" stroke="#448de8"></path><path d="M1072 373L959 273L985 491Z" fill="#5d9ffa" stroke="#5d9ffa"></path><path d="M1002 694L1174 591L1094 475Z" fill="#448de8" stroke="#448de8"></path><path d="M1094 475L1295 463L1072 373Z" fill="#1976d2" stroke="#1976d2"></path><path d="M959 273L845 280L985 491Z" fill="#579bf6" stroke="#579bf6"></path><path d="M780 685L1002 694L985 491Z" fill="#579bf6" stroke="#579bf6"></path><path d="M985 491L1002 694L1094 475Z" fill="#63a4ff" stroke="#63a4ff"></path><path d="M845 280L773 468L985 491Z" fill="#5d9ffa" stroke="#5d9ffa"></path><path d="M1174 591L1295 463L1094 475Z" fill="#247bd6" stroke="#247bd6"></path><path d="M1099 111L911 188L959 273Z" fill="#4b92ed" stroke="#4b92ed"></path><path d="M959 273L911 188L845 280Z" fill="#448de8" stroke="#448de8"></path><path d="M1099 111L959 273L1072 373Z" fill="#2e7fdb" stroke="#2e7fdb"></path><path d="M1295 463L1282 292L1072 373Z" fill="#247bd6" stroke="#247bd6"></path><path d="M911 188L838 216L845 280Z" fill="#3684df" stroke="#3684df"></path><path d="M845 280L633 319L773 468Z" fill="#3684df" stroke="#3684df"></path><path d="M1173 800L1267 612L1174 591Z" fill="#448de8" stroke="#448de8"></path><path d="M1174 591L1267 612L1295 463Z" fill="#63a4ff" stroke="#63a4ff"></path><path d="M1282 292L1099 111L1072 373Z" fill="#4b92ed" stroke="#4b92ed"></path><path d="M911 188L743 0L838 216Z" fill="#63a4ff" stroke="#63a4ff"></path><path d="M773 468L780 685L985 491Z" fill="#1976d2" stroke="#1976d2"></path><path d="M1463 323L1289 182L1282 292Z" fill="#5d9ffa" stroke="#5d9ffa"></path><path d="M1282 292L1289 182L1099 111Z" fill="#5d9ffa" stroke="#5d9ffa"></path><path d="M780 685L937 800L1002 694Z" fill="#448de8" stroke="#448de8"></path><path d="M1002 694L1173 800L1174 591Z" fill="#1976d2" stroke="#1976d2"></path><path d="M605 460L677 587L773 468Z" fill="#5d9ffa" stroke="#5d9ffa"></path><path d="M773 468L677 587L780 685Z" fill="#247bd6" stroke="#247bd6"></path><path d="M937 800L1173 800L1002 694Z" fill="#5d9ffa" stroke="#5d9ffa"></path><path d="M838 216L633 319L845 280Z" fill="#4b92ed" stroke="#4b92ed"></path><path d="M1173 800L1251 800L1267 612Z" fill="#63a4ff" stroke="#63a4ff"></path><path d="M1412 685L1476 452L1295 463Z" fill="#3d88e4" stroke="#3d88e4"></path><path d="M633 319L605 460L773 468Z" fill="#579bf6" stroke="#579bf6"></path><path d="M1099 111L947 0L911 188Z" fill="#1976d2" stroke="#1976d2"></path><path d="M838 216L616 109L633 319Z" fill="#3d88e4" stroke="#3d88e4"></path><path d="M1155 0L947 0L1099 111Z" fill="#3684df" stroke="#3684df"></path><path d="M1412 685L1295 463L1267 612Z" fill="#5196f1" stroke="#5196f1"></path><path d="M1295 463L1463 323L1282 292Z" fill="#4b92ed" stroke="#4b92ed"></path><path d="M1476 452L1463 323L1295 463Z" fill="#579bf6" stroke="#579bf6"></path><path d="M780 685L772 800L937 800Z" fill="#3684df" stroke="#3684df"></path><path d="M616 800L772 800L780 685Z" fill="#1976d2" stroke="#1976d2"></path><path d="M616 800L780 685L677 587Z" fill="#579bf6" stroke="#579bf6"></path><path d="M1236 0L1099 111L1289 182Z" fill="#3d88e4" stroke="#3d88e4"></path><path d="M1236 0L1155 0L1099 111Z" fill="#5d9ffa" stroke="#5d9ffa"></path><path d="M1251 800L1412 685L1267 612Z" fill="#247bd6" stroke="#247bd6"></path><path d="M1409 116L1236 0L1289 182Z" fill="#448de8" stroke="#448de8"></path><path d="M1463 323L1409 116L1289 182Z" fill="#247bd6" stroke="#247bd6"></path><path d="M1476 452L1649 322L1463 323Z" fill="#5d9ffa" stroke="#5d9ffa"></path><path d="M1554 0L1427 0L1409 116Z" fill="#3d88e4" stroke="#3d88e4"></path><path d="M1412 685L1546 517L1476 452Z" fill="#63a4ff" stroke="#63a4ff"></path><path d="M947 0L743 0L911 188Z" fill="#1976d2" stroke="#1976d2"></path><path d="M523 169L513 376L633 319Z" fill="#4b92ed" stroke="#4b92ed"></path><path d="M633 319L513 376L605 460Z" fill="#3684df" stroke="#3684df"></path><path d="M605 460L502 595L677 587Z" fill="#448de8" stroke="#448de8"></path><path d="M743 0L616 109L838 216Z" fill="#3d88e4" stroke="#3d88e4"></path><path d="M513 376L485 506L605 460Z" fill="#247bd6" stroke="#247bd6"></path><path d="M502 595L616 800L677 587Z" fill="#63a4ff" stroke="#63a4ff"></path><path d="M485 506L502 595L605 460Z" fill="#3d88e4" stroke="#3d88e4"></path><path d="M616 109L523 169L633 319Z" fill="#2e7fdb" stroke="#2e7fdb"></path><path d="M513 376L342 447L485 506Z" fill="#3684df" stroke="#3684df"></path><path d="M450 0L523 169L616 109Z" fill="#63a4ff" stroke="#63a4ff"></path><path d="M1251 800L1489 800L1412 685Z" fill="#4b92ed" stroke="#4b92ed"></path><path d="M1412 685L1651 633L1546 517Z" fill="#4b92ed" stroke="#4b92ed"></path><path d="M1626 160L1409 116L1463 323Z" fill="#5d9ffa" stroke="#5d9ffa"></path><path d="M1409 116L1427 0L1236 0Z" fill="#5196f1" stroke="#5196f1"></path><path d="M743 0L618 0L616 109Z" fill="#5d9ffa" stroke="#5d9ffa"></path><path d="M1746 522L1649 322L1546 517Z" fill="#579bf6" stroke="#579bf6"></path><path d="M1546 517L1649 322L1476 452Z" fill="#63a4ff" stroke="#63a4ff"></path><path d="M1489 800L1651 633L1412 685Z" fill="#579bf6" stroke="#579bf6"></path><path d="M1649 322L1626 160L1463 323Z" fill="#2e7fdb" stroke="#2e7fdb"></path><path d="M304 146L366 335L523 169Z" fill="#63a4ff" stroke="#63a4ff"></path><path d="M523 169L366 335L513 376Z" fill="#5d9ffa" stroke="#5d9ffa"></path><path d="M368 619L450 800L502 595Z" fill="#63a4ff" stroke="#63a4ff"></path><path d="M1626 160L1554 0L1409 116Z" fill="#63a4ff" stroke="#63a4ff"></path><path d="M368 619L502 595L485 506Z" fill="#63a4ff" stroke="#63a4ff"></path><path d="M502 595L450 800L616 800Z" fill="#4b92ed" stroke="#4b92ed"></path><path d="M342 447L368 619L485 506Z" fill="#4b92ed" stroke="#4b92ed"></path><path d="M366 335L342 447L513 376Z" fill="#63a4ff" stroke="#63a4ff"></path><path d="M1489 800L1637 800L1651 633Z" fill="#63a4ff" stroke="#63a4ff"></path><path d="M1651 633L1746 522L1546 517Z" fill="#5196f1" stroke="#5196f1"></path><path d="M1649 322L1728 138L1626 160Z" fill="#3d88e4" stroke="#3d88e4"></path><path d="M1750 625L1746 522L1651 633Z" fill="#5196f1" stroke="#5196f1"></path><path d="M618 0L450 0L616 109Z" fill="#247bd6" stroke="#247bd6"></path><path d="M1637 800L1750 625L1651 633Z" fill="#579bf6" stroke="#579bf6"></path><path d="M1796 304L1728 138L1649 322Z" fill="#2e7fdb" stroke="#2e7fdb"></path><path d="M1626 160L1728 138L1554 0Z" fill="#3684df" stroke="#3684df"></path><path d="M216 800L358 800L368 619Z" fill="#3684df" stroke="#3684df"></path><path d="M368 619L358 800L450 800Z" fill="#3d88e4" stroke="#3d88e4"></path><path d="M1920 437L1796 304L1746 522Z" fill="#247bd6" stroke="#247bd6"></path><path d="M1746 522L1796 304L1649 322Z" fill="#63a4ff" stroke="#63a4ff"></path><path d="M450 0L304 146L523 169Z" fill="#247bd6" stroke="#247bd6"></path><path d="M366 335L205 305L342 447Z" fill="#3684df" stroke="#3684df"></path><path d="M142 593L216 800L368 619Z" fill="#247bd6" stroke="#247bd6"></path><path d="M450 0L349 0L304 146Z" fill="#5196f1" stroke="#5196f1"></path><path d="M132 154L205 305L304 146Z" fill="#4b92ed" stroke="#4b92ed"></path><path d="M304 146L205 305L366 335Z" fill="#5d9ffa" stroke="#5d9ffa"></path><path d="M1637 800L1799 800L1750 625Z" fill="#5196f1" stroke="#5196f1"></path><path d="M1920 608L1920 437L1746 522Z" fill="#5196f1" stroke="#5196f1"></path><path d="M1920 195L1780 0L1728 138Z" fill="#2e7fdb" stroke="#2e7fdb"></path><path d="M1728 138L1780 0L1554 0Z" fill="#63a4ff" stroke="#63a4ff"></path><path d="M1920 608L1746 522L1750 625Z" fill="#247bd6" stroke="#247bd6"></path><path d="M1796 304L1920 195L1728 138Z" fill="#3d88e4" stroke="#3d88e4"></path><path d="M1920 437L1920 356L1796 304Z" fill="#63a4ff" stroke="#63a4ff"></path><path d="M142 593L368 619L342 447Z" fill="#5d9ffa" stroke="#5d9ffa"></path><path d="M1799 800L1920 608L1750 625Z" fill="#3684df" stroke="#3684df"></path><path d="M120 453L142 593L342 447Z" fill="#247bd6" stroke="#247bd6"></path><path d="M205 305L120 453L342 447Z" fill="#448de8" stroke="#448de8"></path><path d="M0 282L120 453L205 305Z" fill="#448de8" stroke="#448de8"></path><path d="M1920 356L1920 195L1796 304Z" fill="#3d88e4" stroke="#3d88e4"></path><path d="M127 0L132 154L304 146Z" fill="#448de8" stroke="#448de8"></path><path d="M1799 800L1920 800L1920 608Z" fill="#3684df" stroke="#3684df"></path><path d="M1920 195L1920 0L1780 0Z" fill="#4b92ed" stroke="#4b92ed"></path><path d="M349 0L127 0L304 146Z" fill="#5196f1" stroke="#5196f1"></path><path d="M0 282L0 515L120 453Z" fill="#3684df" stroke="#3684df"></path><path d="M0 282L205 305L132 154Z" fill="#63a4ff" stroke="#63a4ff"></path><path d="M120 453L0 515L142 593Z" fill="#4b92ed" stroke="#4b92ed"></path><path d="M142 593L0 800L216 800Z" fill="#5196f1" stroke="#5196f1"></path><path d="M0 119L0 282L132 154Z" fill="#3684df" stroke="#3684df"></path><path d="M0 515L0 622L142 593Z" fill="#63a4ff" stroke="#63a4ff"></path><path d="M127 0L0 119L132 154Z" fill="#448de8" stroke="#448de8"></path><path d="M0 622L0 800L142 593Z" fill="#3d88e4" stroke="#3d88e4"></path><path d="M127 0L0 0L0 119Z" fill="#247bd6" stroke="#247bd6"></path></g></svg>